<mxfile host="app.diagrams.net" agent="Mozilla/5.0 (Windows NT 10.0; Win64; x64) AppleWebKit/537.36 (KHTML, like Gecko) Chrome/129.0.0.0 Safari/537.36" version="24.7.17">
  <diagram name="Page-1" id="H9swiqpTpxXGbiFMgrT8">
    <mxGraphModel dx="1050" dy="557" grid="1" gridSize="10" guides="1" tooltips="1" connect="1" arrows="1" fold="1" page="1" pageScale="1" pageWidth="850" pageHeight="1100" math="0" shadow="0">
      <root>
        <mxCell id="0" />
        <mxCell id="1" parent="0" />
        <mxCell id="jshoMatuKkUXQj69CUhV-1" value="Khối cảm biến" style="swimlane;whiteSpace=wrap;html=1;rounded=1;fontSize=13;" parent="1" vertex="1">
          <mxGeometry x="50" y="50" width="210" height="200" as="geometry" />
        </mxCell>
        <mxCell id="jshoMatuKkUXQj69CUhV-10" value="Sử dụng cảm biến hồng ngoại IR." style="text;html=1;align=center;verticalAlign=middle;resizable=0;points=[];autosize=1;strokeColor=none;fillColor=none;fontSize=13;" parent="jshoMatuKkUXQj69CUhV-1" vertex="1">
          <mxGeometry y="85" width="220" height="30" as="geometry" />
        </mxCell>
        <mxCell id="jshoMatuKkUXQj69CUhV-2" value="Rơ le" style="swimlane;whiteSpace=wrap;html=1;rounded=1;fontSize=13;" parent="1" vertex="1">
          <mxGeometry x="325" y="50" width="210" height="200" as="geometry" />
        </mxCell>
        <mxCell id="jshoMatuKkUXQj69CUhV-13" value="Sử dụng rơ le điều khiển bật tắt&amp;nbsp;&lt;div&gt;các&amp;nbsp;&lt;span style=&quot;background-color: initial;&quot;&gt;đèn theo tín hiệu của bộ xử lý&lt;/span&gt;&lt;/div&gt;" style="text;html=1;align=center;verticalAlign=middle;resizable=0;points=[];autosize=1;strokeColor=none;fillColor=none;fontSize=13;" parent="jshoMatuKkUXQj69CUhV-2" vertex="1">
          <mxGeometry x="-5" y="80" width="220" height="40" as="geometry" />
        </mxCell>
        <mxCell id="jshoMatuKkUXQj69CUhV-3" value="Khối nguồn" style="swimlane;whiteSpace=wrap;html=1;rounded=1;fontSize=13;" parent="1" vertex="1">
          <mxGeometry x="600" y="50" width="200" height="200" as="geometry" />
        </mxCell>
        <mxCell id="jshoMatuKkUXQj69CUhV-14" value="Cung cấp nguồn cho bộ xử lý&lt;div style=&quot;font-size: 13px;&quot;&gt;và rơ le&lt;/div&gt;" style="text;html=1;align=center;verticalAlign=middle;resizable=0;points=[];autosize=1;strokeColor=none;fillColor=none;fontSize=13;" parent="jshoMatuKkUXQj69CUhV-3" vertex="1">
          <mxGeometry x="5" y="80" width="190" height="40" as="geometry" />
        </mxCell>
        <mxCell id="jshoMatuKkUXQj69CUhV-4" value="LCD hiển thị" style="swimlane;whiteSpace=wrap;html=1;rounded=1;fontSize=13;" parent="1" vertex="1">
          <mxGeometry x="50" y="310" width="205" height="200" as="geometry" />
        </mxCell>
        <mxCell id="jshoMatuKkUXQj69CUhV-15" value="Sử dụng LCD 16x2 hiển thị số&amp;nbsp;&lt;div&gt;người&amp;nbsp;&lt;span style=&quot;background-color: initial;&quot;&gt;đang trong phòng&lt;/span&gt;&lt;/div&gt;" style="text;html=1;align=center;verticalAlign=middle;resizable=0;points=[];autosize=1;strokeColor=none;fillColor=none;fontSize=13;" parent="jshoMatuKkUXQj69CUhV-4" vertex="1">
          <mxGeometry x="5" y="80" width="200" height="40" as="geometry" />
        </mxCell>
        <mxCell id="jshoMatuKkUXQj69CUhV-5" value="Bộ xử lý" style="swimlane;whiteSpace=wrap;html=1;rounded=1;fontSize=13;" parent="1" vertex="1">
          <mxGeometry x="325" y="310" width="205" height="200" as="geometry" />
        </mxCell>
        <mxCell id="jshoMatuKkUXQj69CUhV-16" value="Sử dụng ATmega 328p để xử lý&amp;nbsp;&lt;div style=&quot;font-size: 13px;&quot;&gt;các tác vụ&amp;nbsp;&lt;/div&gt;" style="text;html=1;align=center;verticalAlign=middle;resizable=0;points=[];autosize=1;strokeColor=none;fillColor=none;fontSize=13;" parent="jshoMatuKkUXQj69CUhV-5" vertex="1">
          <mxGeometry x="-5" y="80" width="210" height="40" as="geometry" />
        </mxCell>
        <mxCell id="jshoMatuKkUXQj69CUhV-6" value="Bộ đèn" style="swimlane;whiteSpace=wrap;html=1;rounded=1;fontSize=13;" parent="1" vertex="1">
          <mxGeometry x="600" y="310" width="200" height="200" as="geometry" />
        </mxCell>
        <mxCell id="jshoMatuKkUXQj69CUhV-17" value="&lt;span style=&quot;font-size: 13px;&quot;&gt;Đèn công suất khoảng 3-30W&amp;nbsp;&lt;/span&gt;&lt;div&gt;&lt;span style=&quot;font-size: 13px;&quot;&gt;đảm bảo đủ độ sáng&lt;/span&gt;&lt;/div&gt;" style="text;html=1;align=center;verticalAlign=middle;resizable=0;points=[];autosize=1;strokeColor=none;fillColor=none;" parent="1" vertex="1">
          <mxGeometry x="600" y="383" width="200" height="40" as="geometry" />
        </mxCell>
      </root>
    </mxGraphModel>
  </diagram>
</mxfile>
